<svg width="45" height="38" viewBox="0 0 45 38" fill="none" xmlns="http://www.w3.org/2000/svg">
<path d="M43.3929 1.94815e-06H31.9018C29.4358 1.94815e-06 27.0251 0.752564 24.9509 2.17229L22.5 3.84287L20.0491 2.17229C17.977 0.752836 15.5635 -0.00139902 13.0982 1.94815e-06H1.60714C0.718192 1.94815e-06 0 0.763239 0 1.70794V32.0239C0 32.9686 0.718192 33.7319 1.60714 33.7319H13.0982C15.5642 33.7319 17.9749 34.4844 20.0491 35.9041L22.279 37.4306C22.3443 37.4733 22.4196 37.5 22.495 37.5C22.5703 37.5 22.6456 37.4787 22.7109 37.4306L24.9408 35.9041C27.0201 34.4844 29.4358 33.7319 31.9018 33.7319H43.3929C44.2818 33.7319 45 32.9686 45 32.0239V1.70794C45 0.763239 44.2818 1.94815e-06 43.3929 1.94815e-06ZM13.0982 29.889H3.61607V3.84287H13.0982C14.8761 3.84287 16.6038 4.38194 18.0954 5.40137L20.5463 7.07195L20.8929 7.31213V31.9705C18.5022 30.6042 15.8304 29.889 13.0982 29.889ZM41.3839 29.889H31.9018C29.1696 29.889 26.4978 30.6042 24.1071 31.9705V7.31213L24.4537 7.07195L26.9046 5.40137C28.3962 4.38194 30.1239 3.84287 31.9018 3.84287H41.3839V29.889ZM16.7193 10.6746H7.38784C7.19196 10.6746 7.03125 10.8561 7.03125 11.0749V13.4767C7.03125 13.6956 7.19196 13.877 7.38784 13.877H16.7143C16.9102 13.877 17.0709 13.6956 17.0709 13.4767V11.0749C17.0759 10.8561 16.9152 10.6746 16.7193 10.6746ZM27.9241 11.0749V13.4767C27.9241 13.6956 28.0848 13.877 28.2807 13.877H37.6071C37.803 13.877 37.9637 13.6956 37.9637 13.4767V11.0749C37.9637 10.8561 37.803 10.6746 37.6071 10.6746H28.2807C28.0848 10.6746 27.9241 10.8561 27.9241 11.0749ZM16.7193 18.1469H7.38784C7.19196 18.1469 7.03125 18.3284 7.03125 18.5472V20.949C7.03125 21.1678 7.19196 21.3493 7.38784 21.3493H16.7143C16.9102 21.3493 17.0709 21.1678 17.0709 20.949V18.5472C17.0759 18.3284 16.9152 18.1469 16.7193 18.1469ZM37.6122 18.1469H28.2807C28.0848 18.1469 27.9241 18.3284 27.9241 18.5472V20.949C27.9241 21.1678 28.0848 21.3493 28.2807 21.3493H37.6071C37.803 21.3493 37.9637 21.1678 37.9637 20.949V18.5472C37.9688 18.3284 37.808 18.1469 37.6122 18.1469Z" fill="#5E73AF"/>
</svg>
