<svg width="43" height="40" viewBox="0 0 43 40" fill="none" xmlns="http://www.w3.org/2000/svg">
<path d="M40.613 17.4475C42.1897 17.4475 42.8479 15.4219 41.5672 14.4882L22.0812 0.313795C21.803 0.109914 21.467 0 21.122 0C20.777 0 20.441 0.109914 20.1627 0.313795L0.676805 14.4882C-0.603889 15.4168 0.0543164 17.4475 1.63605 17.4475H4.79441V36.5304H1.12071C0.896207 36.5304 0.712521 36.7141 0.712521 36.9386V39.5918C0.712521 39.8163 0.896207 40 1.12071 40H41.1233C41.3478 40 41.5314 39.8163 41.5314 39.5918V36.9386C41.5314 36.7141 41.3478 36.5304 41.1233 36.5304H37.4496V17.4475H40.613ZM21.122 3.91096L34.9545 13.9728H7.28947L21.122 3.91096ZM8.46812 17.4475H14.4379V36.5304H8.46812V17.4475ZM18.1116 17.4475H24.0814V36.5304H18.1116V17.4475ZM33.7759 36.5304H27.7551V17.4475H33.7759V36.5304Z" fill="#5E73AF"/>
</svg>
