<svg width="45" height="45" viewBox="0 0 45 45" fill="none" xmlns="http://www.w3.org/2000/svg">
<path d="M22.5 0C10.0748 0 0 10.0748 0 22.5C0 34.9252 10.0748 45 22.5 45C34.9252 45 45 34.9252 45 22.5C45 10.0748 34.9252 0 22.5 0ZM22.5 41.183C12.1842 41.183 3.81696 32.8158 3.81696 22.5C3.81696 12.1842 12.1842 3.81696 22.5 3.81696C32.8158 3.81696 41.183 12.1842 41.183 22.5C41.183 32.8158 32.8158 41.183 22.5 41.183ZM24.8956 21.3348L23.62 21.0385V14.2935C25.5285 14.5547 26.7087 15.75 26.9096 17.2165C26.9347 17.4174 27.1055 17.5631 27.3064 17.5631H29.5614C29.7974 17.5631 29.9833 17.3571 29.9632 17.1211C29.6568 13.9922 27.0804 11.9833 23.6401 11.6367V9.99442C23.6401 9.77344 23.4593 9.59263 23.2383 9.59263H21.827C21.606 9.59263 21.4252 9.77344 21.4252 9.99442V11.6518C17.8694 11.9983 15.0871 13.9621 15.0871 17.6283C15.0871 21.0234 17.5882 22.6607 20.2148 23.2885L21.4554 23.6049V30.7718C19.2355 30.4754 17.99 29.2902 17.7338 27.6931C17.7037 27.5022 17.5329 27.3616 17.3371 27.3616H15.0167C14.7807 27.3616 14.5949 27.5625 14.615 27.7985C14.841 30.5608 16.9353 33.1021 21.4051 33.4286V35.0056C21.4051 35.2266 21.5859 35.4074 21.8069 35.4074H23.2333C23.4542 35.4074 23.635 35.2266 23.635 35.0006L23.625 33.4085C27.5575 33.0619 30.37 30.9576 30.37 27.1808C30.365 23.6953 28.1501 22.1384 24.8956 21.3348ZM21.4503 20.5212C21.1691 20.4408 20.933 20.3655 20.697 20.2701C18.9994 19.6574 18.2109 18.668 18.2109 17.3923C18.2109 15.5692 19.5921 14.5296 21.4503 14.2935V20.5212ZM23.62 30.7868V24.072C23.7757 24.1172 23.9163 24.1523 24.0619 24.1825C26.4375 24.9057 27.236 25.9102 27.236 27.452C27.236 29.4157 25.7595 30.596 23.62 30.7868Z" fill="#5E73AF"/>
</svg>
