<svg width="87" height="83" viewBox="0 0 87 83" fill="none" xmlns="http://www.w3.org/2000/svg">
<g filter="url(#filter0_d)">
<path d="M76.87 57.5627C79.1273 57.5627 81.0303 58.3302 82.5789 59.8652C84.1276 61.4002 84.8888 63.191 84.8625 65.2377L53.2467 76.7502L25.6862 69.0752V34.5376H33.3638L61.9873 44.8605C64.0347 45.6536 65.0583 47.0863 65.0583 49.1585C65.0583 50.361 64.6121 51.4099 63.7197 52.3053C62.8273 53.2007 61.6986 53.674 60.3337 53.7252H49.3095L42.4194 51.154L41.1201 54.7613L49.3095 57.5627H76.87ZM61.1211 4.72014C63.9034 1.57338 67.4469 0 71.7516 0C75.3213 0 78.3399 1.27917 80.8072 3.83751C83.2745 6.39585 84.5869 9.33795 84.7444 12.6638C84.7444 15.2989 83.432 18.4456 80.8072 22.1041C78.1824 25.7625 75.5969 28.8197 73.0509 31.2757C70.5048 33.7317 66.5282 37.3774 61.1211 42.2126C55.6615 37.3774 51.6456 33.7317 49.0733 31.2757C46.501 28.8197 43.9155 25.7625 41.317 22.1041C38.7184 18.4456 37.4454 15.2989 37.4979 12.6638C37.4979 9.18445 38.7709 6.24235 41.317 3.83751C43.863 1.43267 46.9341 0.1535 50.53 0C54.7297 0 58.2601 1.57338 61.1211 4.72014ZM2 34.5376H17.8118V76.7502H2V34.5376Z" fill="#74E4D2"/>
</g>
<defs>
<filter id="filter0_d" x="0" y="0" width="86.8632" height="82.7502" filterUnits="userSpaceOnUse" color-interpolation-filters="sRGB">
<feFlood flood-opacity="0" result="BackgroundImageFix"/>
<feColorMatrix in="SourceAlpha" type="matrix" values="0 0 0 0 0 0 0 0 0 0 0 0 0 0 0 0 0 0 127 0"/>
<feOffset dy="4"/>
<feGaussianBlur stdDeviation="1"/>
<feColorMatrix type="matrix" values="0 0 0 0 0.435294 0 0 0 0 0.780392 0 0 0 0 0.705882 0 0 0 0.4 0"/>
<feBlend mode="normal" in2="BackgroundImageFix" result="effect1_dropShadow"/>
<feBlend mode="normal" in="SourceGraphic" in2="effect1_dropShadow" result="shape"/>
</filter>
</defs>
</svg>
