<svg width="45" height="40" viewBox="0 0 45 40" fill="none" xmlns="http://www.w3.org/2000/svg">
<path d="M43.5701 8.19721C42.8773 6.59311 41.8784 5.13949 40.6292 3.91773C39.3791 2.69232 37.9053 1.7185 36.2877 1.04923C34.6104 0.352489 32.8115 -0.00414399 30.9952 3.63284e-05C28.4472 3.63284e-05 25.9611 0.697778 23.8007 2.01573C23.2839 2.33101 22.7929 2.6773 22.3277 3.05459C21.8626 2.6773 21.3716 2.33101 20.8547 2.01573C18.6943 0.697778 16.2083 3.63284e-05 13.6602 3.63284e-05C11.8254 3.63284e-05 10.0475 0.351491 8.36773 1.04923C6.74483 1.72113 5.28216 2.68763 4.02623 3.91773C2.77544 5.13811 1.77628 6.59207 1.08538 8.19721C0.36696 9.86662 0 11.6394 0 13.4639C0 15.185 0.351455 16.9784 1.0492 18.8029C1.63323 20.3276 2.47052 21.9091 3.54039 23.5062C5.23564 26.0335 7.56662 28.6695 10.461 31.3415C15.2573 35.7709 20.0071 38.8306 20.2087 38.9547L21.4336 39.7403C21.9763 40.0866 22.674 40.0866 23.2167 39.7403L24.4416 38.9547C24.6432 38.8255 29.3878 35.7709 34.1893 31.3415C37.0837 28.6695 39.4146 26.0335 41.1099 23.5062C42.1798 21.9091 43.0222 20.3276 43.6011 18.8029C44.2988 16.9784 44.6503 15.185 44.6503 13.4639C44.6554 11.6394 44.2885 9.86662 43.5701 8.19721ZM22.3277 35.652C22.3277 35.652 3.92803 23.8628 3.92803 13.4639C3.92803 8.1972 8.28503 3.92806 13.6602 3.92806C17.4384 3.92806 20.7152 6.03679 22.3277 9.11719C23.9403 6.03679 27.2171 3.92806 30.9952 3.92806C36.3704 3.92806 40.7274 8.1972 40.7274 13.4639C40.7274 23.8628 22.3277 35.652 22.3277 35.652Z" fill="#5E73AF"/>
</svg>
