<svg width="40" height="40" viewBox="0 0 40 40" fill="none" xmlns="http://www.w3.org/2000/svg">
<path d="M35.6091 29.3953C34.3576 28.1428 32.8953 27.1206 31.2892 26.3754C33.5541 24.5405 34.9991 21.7405 34.9991 18.6006C34.9991 13.0608 30.3792 8.51592 24.8394 8.60092C19.3846 8.68592 14.9897 13.1308 14.9897 18.6006C14.9897 21.7405 16.4396 24.5405 18.6996 26.3754C17.0932 27.12 15.6308 28.1424 14.3797 29.3953C11.6498 32.1302 10.0998 35.7401 9.99983 39.59C9.9985 39.6434 10.0079 39.6965 10.0274 39.7462C10.0469 39.7958 10.0761 39.8411 10.1134 39.8793C10.1507 39.9175 10.1952 39.9479 10.2444 39.9686C10.2936 39.9893 10.3464 40 10.3998 40H13.1997C13.4147 40 13.5947 39.83 13.5997 39.615C13.6947 36.7151 14.8697 34.0002 16.9346 31.9402C17.9913 30.878 19.2482 30.0358 20.6325 29.4625C22.0168 28.8892 23.5011 28.5962 24.9994 28.6003C28.0443 28.6003 30.9092 29.7853 33.0642 31.9402C35.1241 34.0002 36.2991 36.7151 36.3991 39.615C36.4041 39.83 36.5841 40 36.799 40H39.599C39.6523 40 39.7052 39.9893 39.7544 39.9686C39.8036 39.9479 39.8481 39.9175 39.8854 39.8793C39.9227 39.8411 39.9519 39.7958 39.9714 39.7462C39.9909 39.6965 40.0003 39.6434 39.999 39.59C39.899 35.7401 38.349 32.1302 35.6091 29.3953ZM24.9994 25.0004C23.2894 25.0004 21.6795 24.3355 20.4745 23.1255C19.8698 22.5255 19.3921 21.8099 19.07 21.0214C18.7479 20.2328 18.5879 19.3874 18.5996 18.5356C18.6146 16.8957 19.2696 15.3107 20.4145 14.1358C21.6145 12.9058 23.2194 12.2208 24.9344 12.2008C26.6293 12.1858 28.2743 12.8458 29.4843 14.0308C30.7242 15.2457 31.4042 16.8707 31.4042 18.6006C31.4042 20.3106 30.7392 21.9155 29.5293 23.1255C28.9356 23.722 28.2296 24.1948 27.4521 24.5166C26.6745 24.8384 25.8409 25.0029 24.9994 25.0004ZM12.4748 19.9206C12.4298 19.4856 12.4048 19.0456 12.4048 18.6006C12.4048 17.8057 12.4798 17.0307 12.6198 16.2757C12.6548 16.0957 12.5598 15.9107 12.3948 15.8357C11.7148 15.5307 11.0898 15.1107 10.5498 14.5807C9.91353 13.9638 9.41284 13.221 9.07968 12.3997C8.74653 11.5785 8.58822 10.6968 8.61487 9.81089C8.65987 8.20593 9.30485 6.68098 10.4298 5.53101C11.6648 4.26605 13.3247 3.57607 15.0897 3.59607C16.6846 3.61107 18.2246 4.22605 19.3896 5.31602C19.7845 5.68601 20.1245 6.09599 20.4095 6.53598C20.5095 6.69098 20.7045 6.75598 20.8745 6.69598C21.7545 6.39099 22.6845 6.17599 23.6394 6.07599C23.9194 6.046 24.0794 5.746 23.9544 5.49601C22.3295 2.28111 19.0096 0.0611714 15.1697 0.00117315C9.62484 -0.0838244 5.00498 4.46104 5.00498 9.99588C5.00498 13.1358 6.44994 15.9357 8.71487 17.7707C7.12492 18.5056 5.65996 19.5206 4.39 20.7906C1.65008 23.5255 0.100122 27.1354 0.000125026 30.9903C-0.00120946 31.0436 0.0081504 31.0967 0.0276534 31.1464C0.0471563 31.1961 0.0764076 31.2414 0.113684 31.2796C0.15096 31.3178 0.195507 31.3482 0.244699 31.3689C0.293891 31.3896 0.346734 31.4003 0.400113 31.4003H3.20503C3.42003 31.4003 3.60002 31.2303 3.60502 31.0153C3.70002 28.1153 4.87498 25.4004 6.93992 23.3405C8.40988 21.8705 10.2098 20.8506 12.1748 20.3556C12.3698 20.3056 12.4998 20.1206 12.4748 19.9206Z" fill="#5E73AF"/>
</svg>
