<svg width="100%" height="433" viewBox="0 0 1440 433" preserveAspectRatio="none" fill="none" xmlns="http://www.w3.org/2000/svg">
<path opacity="0.4" d="M1481.67 3.02491C1467.18 0.971969 1452.29 0.00683652 1437.37 0.153418C1383.39 0.674614 1330.03 15.4451 1290.52 41.7803C1250.37 68.558 1226.71 105.278 1190.5 134.514C1152.06 165.55 1098.39 190.311 1038.26 180.123C1008.29 175.059 981.151 163.681 953.685 153.887C927.139 144.417 899.469 136.825 869.959 135.202C816.203 132.252 760.573 143.256 716.938 165.5C669.537 189.662 637.999 226.569 599.374 257.231C562.247 286.733 516.823 311.632 459.029 312.124C428.599 312.389 399.923 305.978 372.474 296.39C345.656 287.038 320.065 276.26 291.662 269.622C237.346 256.893 176.814 256.144 121.603 267.517C69.9424 278.03 22.0137 298.622 -13 328.114L-11.4495 421.988L1488.88 432.599L1481.67 3.02491Z" fill="#6FC7B4" fill-opacity="0.5"/>
</svg>
