<svg width="92" height="83" viewBox="0 0 92 83" fill="none" xmlns="http://www.w3.org/2000/svg">
<g filter="url(#filter0_d)">
<path d="M73.5031 0.184937L53.817 17.4537V59.6663L73.5031 42.3975V0.184937ZM24.2879 11.6975C16.6104 11.6975 8.34225 13.2325 2.6333 17.4537V73.7116C2.6333 74.6709 3.6176 75.6303 4.60191 75.6303C4.99563 75.6303 5.19249 75.3617 5.58621 75.3617C10.9014 72.8673 18.579 71.1788 24.2879 71.1788C31.9655 71.1788 40.2336 72.7138 45.9426 76.9351C51.2578 73.6732 60.904 71.1788 67.5972 71.1788C74.0936 71.1788 80.7869 72.3684 86.299 75.2466C86.6927 75.4384 86.8896 75.3617 87.2833 75.3617C88.2676 75.3617 89.2519 74.4023 89.2519 73.4429V17.4537C86.8896 15.7268 84.3304 14.5756 81.3775 13.6162V21.2912V42.3975V65.4225C77.0465 64.0794 72.3219 63.5038 67.5972 63.5038C60.904 63.5038 51.2578 65.9982 45.9426 69.26V42.3975V25.1287V17.4537C40.2336 13.2325 31.9655 11.6975 24.2879 11.6975Z" fill="#74E4D2"/>
</g>
<defs>
<filter id="filter0_d" x="0.633301" y="0.184937" width="90.6186" height="82.7501" filterUnits="userSpaceOnUse" color-interpolation-filters="sRGB">
<feFlood flood-opacity="0" result="BackgroundImageFix"/>
<feColorMatrix in="SourceAlpha" type="matrix" values="0 0 0 0 0 0 0 0 0 0 0 0 0 0 0 0 0 0 127 0"/>
<feOffset dy="4"/>
<feGaussianBlur stdDeviation="1"/>
<feColorMatrix type="matrix" values="0 0 0 0 0.435294 0 0 0 0 0.780392 0 0 0 0 0.705882 0 0 0 0.4 0"/>
<feBlend mode="normal" in2="BackgroundImageFix" result="effect1_dropShadow"/>
<feBlend mode="normal" in="SourceGraphic" in2="effect1_dropShadow" result="shape"/>
</filter>
</defs>
</svg>
