<svg width="88" height="61" viewBox="0 0 88 61" fill="none" xmlns="http://www.w3.org/2000/svg">
<path d="M16.6858 0.574341H87.5556V45.723H16.6858V0.574341ZM52.1207 11.8615C55.2534 11.8615 58.2577 13.0507 60.4728 15.1675C62.6879 17.2842 63.9324 20.1551 63.9324 23.1487C63.9324 26.1422 62.6879 29.0132 60.4728 31.1299C58.2577 33.2467 55.2534 34.4359 52.1207 34.4359C48.9881 34.4359 45.9838 33.2467 43.7687 31.1299C41.5535 29.0132 40.3091 26.1422 40.3091 23.1487C40.3091 20.1551 41.5535 17.2842 43.7687 15.1675C45.9838 13.0507 48.9881 11.8615 52.1207 11.8615ZM32.4347 8.09912C32.4347 10.0948 31.6051 12.0088 30.1283 13.4199C28.6516 14.8311 26.6487 15.6239 24.5603 15.6239V30.6735C26.6487 30.6735 28.6516 31.4663 30.1283 32.8774C31.6051 34.2886 32.4347 36.2026 32.4347 38.1983H71.8068C71.8068 36.2026 72.6364 34.2886 74.1131 32.8774C75.5899 31.4663 77.5928 30.6735 79.6812 30.6735V15.6239C77.5928 15.6239 75.5899 14.8311 74.1131 13.4199C72.6364 12.0088 71.8068 10.0948 71.8068 8.09912H32.4347ZM0.937012 15.6239H8.81143V53.2478H71.8068V60.7726H0.937012V15.6239Z" fill="#74E4D2"/>
</svg>
