<svg width="80" height="57" viewBox="0 0 80 57" fill="none" xmlns="http://www.w3.org/2000/svg">
<path d="M55.7906 48.9606V56.4854H0.669678V48.9606C0.669678 48.9606 0.669678 33.9111 28.2302 33.9111C55.7906 33.9111 55.7906 48.9606 55.7906 48.9606ZM42.0104 13.2179C42.0104 10.6135 41.2022 8.06749 39.688 5.90196C38.1738 3.73643 36.0216 2.04861 33.5036 1.05193C30.9856 0.0552451 28.2149 -0.205533 25.5418 0.302572C22.8687 0.810676 20.4133 2.06484 18.4861 3.90647C16.5589 5.7481 15.2464 8.09448 14.7147 10.6489C14.183 13.2033 14.4559 15.851 15.4989 18.2572C16.5419 20.6634 18.3081 22.7201 20.5743 24.167C22.8404 25.614 25.5047 26.3863 28.2302 26.3863C31.8849 26.3863 35.39 24.9989 37.9743 22.5294C40.5585 20.0598 42.0104 16.7104 42.0104 13.2179ZM55.5544 33.9111C57.9748 35.701 59.9553 37.9761 61.3566 40.5762C62.7578 43.1763 63.5458 46.0382 63.665 48.9606V56.4854H79.4139V48.9606C79.4139 48.9606 79.4139 35.3032 55.5544 33.9111ZM51.8534 0.0495447C49.1434 0.0351246 46.493 0.809381 44.2546 2.26936C46.6462 5.46264 47.9322 9.29105 47.9322 13.2179C47.9322 17.1448 46.6462 20.9732 44.2546 24.1665C46.493 25.6264 49.1434 26.4007 51.8534 26.3863C55.5082 26.3863 59.0132 24.9989 61.5975 22.5294C64.1818 20.0598 65.6337 16.7104 65.6337 13.2179C65.6337 9.72545 64.1818 6.37602 61.5975 3.90647C59.0132 1.43692 55.5082 0.0495447 51.8534 0.0495447Z" fill="#74E4D2"/>
</svg>
