<?xml version="1.0" encoding="UTF-8" standalone="no"?>
<svg
   xmlns:dc="http://purl.org/dc/elements/1.1/"
   xmlns:cc="http://creativecommons.org/ns#"
   xmlns:rdf="http://www.w3.org/1999/02/22-rdf-syntax-ns#"
   xmlns:svg="http://www.w3.org/2000/svg"
   xmlns="http://www.w3.org/2000/svg"
   xmlns:sodipodi="http://sodipodi.sourceforge.net/DTD/sodipodi-0.dtd"
   xmlns:inkscape="http://www.inkscape.org/namespaces/inkscape"
   inkscape:version="1.0 (4035a4fb49, 2020-05-01)"
   sodipodi:docname="Vector.svg"
   id="svg4"
   version="1.1"
   fill="none"
   viewBox="0 0 900 303"
   height="303"
   width="852"
   preserveAspectRatio="none">
  <metadata
     id="metadata10">
    <rdf:RDF>
      <cc:Work
         rdf:about="">
        <dc:format>image/svg+xml</dc:format>
        <dc:type
           rdf:resource="http://purl.org/dc/dcmitype/StillImage" />
      </cc:Work>
    </rdf:RDF>
  </metadata>
  <defs
     id="defs8" />
  <sodipodi:namedview
     inkscape:current-layer="svg4"
     inkscape:window-maximized="1"
     inkscape:window-y="-9"
     inkscape:window-x="-9"
     inkscape:cy="151.5"
     inkscape:cx="426"
     inkscape:zoom="1.4178404"
     showgrid="false"
     id="namedview6"
     inkscape:window-height="1051"
     inkscape:window-width="1920"
     inkscape:pageshadow="2"
     inkscape:pageopacity="0"
     guidetolerance="10"
     gridtolerance="10"
     objecttolerance="10"
     borderopacity="1"
     bordercolor="#666666"
     pagecolor="#ffffff" />
  <path
     sodipodi:nodetypes="ccccccccccccccccc"
     id="path2"
     fill="#677cb3"
     d="M -0.25231417,1.197812 C 8.0126258,-0.09118401 25.6213,0.0801078 34.0568,0.312387 64.602,1.13412 94.675,11.7305 116.766,30.1361 c 22.452,18.7395 35.496,44.1066 55.711,64.4771 21.45,21.6158 51.584,39.0598 85.71,32.6008 17.01,-3.226 32.476,-10.789 48.11,-17.282 15.109,-6.266 30.833,-11.2492 47.546,-12.107 30.458,-1.5882 61.842,6.465 86.313,22.096 26.634,16.986 44.087,42.572 65.622,63.945 20.727,20.567 46.196,38.027 78.876,38.864 17.232,0.442 33.519,-3.711 49.152,-10.041 15.269,-6.177 29.858,-13.362 45.975,-17.687 31.139,-8.27 65.069,-8.264 96.246,0.015 30.385,8.002 107.58546,89.92331 126.44046,109.72631 l -49.76727,0.23088 -854.07158,-2.09851 z"
     opacity="0.4" />
</svg>
